<?xml version="1.0" encoding="UTF-8"?>
<svg id="Layer_3" data-name="Layer 3" xmlns="http://www.w3.org/2000/svg" viewBox="0 0 625.872 160">
  <defs>
    <style>
      .cls-1 {
        fill-rule: evenodd;
      }

      .cls-1, .cls-2 {
        fill: #000060;
      }

      .cls-3 {
        fill: #e4761b;
      }
    </style>
  </defs>
  <g id="Layer_1" data-name="Layer 1">
    <g>
      <g id="Layer_1-2" data-name="Layer 1-2">
        <path class="cls-1" d="M327.799,41.199c0,5.493-2.961,8.943-9.624,8.943-.8,0-1.851-.059-2.784-.252v-13.504c0-.933.059-2.221.489-2.902.489-.681,1.658-.74,3.213-.74,4.99,0,8.692,2.961,8.692,8.455h.015ZM341.984,71.168l-.992-.118c-2.28-.311-3.154-.118-5.671-4.131l-6.352-9.995c-2.162-3.332-2.591-4.013-4.072-5.123,4.309-.489,11.594-3.272,11.594-10.483,0-7.714-7.463-11.534-17.339-11.534-2.532,0-12.763.059-16.717,0v2.339l1.851.118c2.532.178,3.08.489,3.08,4.131v30.531c0,3.642-.563,3.953-3.08,4.131l-1.851.118v2.339c3.953-.059,15.917-.059,17.886,0v-2.339l-2.103-.118c-2.532-.192-2.843-.429-2.843-4.131v-14.185c1.732,0,2.339.429,4.62,4.19l5.863,9.995c.8,1.421,3.761,5.612,4.25,6.604,1.051-.059,11.105-.059,11.845,0v-2.339h.03Z"/>
        <path class="cls-2" d="M362.299,61.869v-19.56c3.08-.355,7.492-.874,7.507-1.022-.044.711-.044,26.371-.044,26.371,0,3.198.8,3.494,3.109,3.82l1.673.237v1.999c-.8-.059-9.802-.059-11.505,0l-.459-5.641-.163.296c-1.199,2.073-3.435,5.863-8.78,5.863-7.344,0-9.21-4.783-9.21-8.706v-18.183c0-1.762-.622-2.236-2.236-2.428,0,0-1.584-.178-2.547-.192v-1.999c4.62-.311,9.935-1.096,12.497-1.421-.044.755-.252,4.649-.252,6.796v14.777c0,4.516.814,7.403,4.19,7.403s6.204-3.85,6.204-8.41h.015Z"/>
        <path class="cls-2" d="M386.774,74.233c-3.42,0-6.663-.622-9.772-1.792l-.37-7.744h1.984c.044,4.279,2.739,7.359,8.277,7.359,3.82,0,6.456-2.236,6.456-5.508,0-3.021-2.132-4.62-4.353-5.316l-3.391-1.007c-5.212-1.51-9.358-3.317-9.358-9.58,0-5.508,5.952-9.402,12.349-9.402,4.99,0,7.862,1.214,9.151,1.792l.37,7.374h-1.984c-.044-4.531-3.42-6.974-7.522-6.974-3.139,0-5.449,2.31-5.449,5.33,0,2.502,1.288,4.116,3.791,4.886l4.027,1.199c4.605,1.392,9.358,3.198,9.358,9.076,0,6.204-5.019,10.335-13.548,10.335h0l-.015-.03Z"/>
        <path class="cls-2" d="M413.856,74.233c-3.42,0-6.663-.622-9.772-1.792l-.37-7.744h1.984c.044,4.279,2.739,7.359,8.292,7.359,3.82,0,6.456-2.236,6.456-5.508,0-3.021-2.117-4.62-4.353-5.316l-3.391-1.007c-5.227-1.51-9.358-3.317-9.358-9.58,0-5.508,5.952-9.402,12.349-9.402,4.99,0,7.862,1.214,9.151,1.792l.37,7.374h-1.984c-.044-4.531-3.42-6.974-7.522-6.974-3.139,0-5.449,2.31-5.449,5.33,0,2.502,1.288,4.116,3.791,4.886l4.027,1.199c4.605,1.392,9.358,3.198,9.358,9.076,0,6.204-5.019,10.335-13.548,10.335h0l-.03-.03Z"/>
        <path class="cls-1" d="M451.243,54.496c-.326-6.337-2.458-10.838-6.589-10.838-4.56,0-6.841,5.197-7.033,10.735l13.622.104h0ZM437.694,57.057c0,5.375,2.191,14.244,8.854,14.244,2.369,0,4.072-.489,5.523-1.303.726-.4,1.377-.888,2.014-1.421.622-.518,1.214-1.096,1.851-1.703l2.221,1.703c-2.68,2.798-5.493,5.671-12.808,5.671-10.557,0-15.369-8.425-15.369-16.82,0-7.566,6.012-16.258,14.866-16.258,9.758,0,14.14,7.418,14.185,15.888h-21.336Z"/>
        <path class="cls-2" d="M477.199,71.36l-1.481-.178c-2.221-.311-2.961-.548-2.961-3.761V28.554c-.8.311-7.092,1.111-11.727,1.421v2.162c.933,0,2.103.118,2.103.118,1.481.059,2.103.622,2.103,2.28v32.871c0,3.332-.74,3.45-2.961,3.761l-1.362.178v2.162c2.399-.059,15.103-.059,16.287,0v-2.162h0v.015Z"/>
        <path class="cls-2" d="M319.744,128.366l-1.362-.118c-2.532-.192-3.08-.563-3.08-4.131v-30.531c0-3.761.548-3.82,3.08-4.131l1.362-.133v-2.339c-2.473.059-14.437.059-16.894,0v2.339l1.362.133c2.532.311,3.08.37,3.08,4.131v30.531c0,3.583-.563,3.953-3.08,4.131l-1.362.118v2.339c2.473-.059,15.665-.059,16.894,0v-2.339h0Z"/>
        <path class="cls-2" d="M357.576,130.705h-12.497c.178-3.183.252-6.707.252-8.632v-12.586c0-4.516-1.007-7.403-4.383-7.403s-6.396,3.85-6.396,8.41v14.096c0,3.257.666,3.746,3.109,3.939l1.658.178v1.999c-1.185-.059-14.57-.059-17.028,0v-1.999l1.673-.178c2.458-.192,3.109-.622,3.109-3.939v-20.256c0-1.762-.622-2.236-2.236-2.428,0,0-1.584-.178-2.547-.192v-1.999c4.501-.311,10.35-1.051,11.564-1.407l.385,5.997.178-.296c1.199-2.073,3.554-5.863,8.973-5.863,7.033,0,9.387,4.783,9.387,8.706v17.738c0,3.257.666,3.746,3.109,3.939l1.673.178v1.999h.015Z"/>
        <path class="cls-2" d="M385.323,101.388c-1.392.192-2.162,1.14-3.109,3.85l-6.974,19.278c-.489,1.111-1.969,5.345-2.547,6.678h-2.961c-.252-.385-.711-1.51-1.229-2.813-.533-1.347-1.096-2.872-1.495-3.879l-8.617-19.293c-.296-.637-.518-1.17-.726-1.629-.192-.459-.37-.844-.577-1.155-.415-.637-.948-.962-1.984-1.066l-1.732-.178v-1.999c2.443.059,13.518.059,15.962,0v1.999l-1.984.178c-.977.059-1.481.474-1.481,1.362,0,.77.326,1.806.637,2.562l6.707,16.406,5.627-16.406c.089-.281.222-.651.326-1.036.104-.385.178-.814.178-1.199,0-.992-.474-1.614-1.421-1.688l-1.792-.178v-1.999c1.229.074,9.698.074,10.927,0v1.999l-1.732.178h0v.03Z"/>
        <path class="cls-1" d="M406.556,111.486c-.326-6.322-2.458-10.838-6.589-10.838-4.575,0-6.841,5.197-7.018,10.735l13.622.104h-.015ZM393.008,114.048c0,5.375,2.191,14.244,8.854,14.244,2.384,0,4.072-.489,5.523-1.303.726-.4,1.377-.888,2.014-1.436.622-.518,1.214-1.096,1.851-1.703l2.236,1.703c-2.68,2.798-5.493,5.671-12.808,5.671-10.557,0-15.369-8.425-15.369-16.82,0-7.566,6.012-16.258,14.866-16.258,9.758,0,14.14,7.418,14.17,15.888h-21.322l-.015.015Z"/>
        <path class="cls-2" d="M427.952,131.209c-3.42,0-6.663-.622-9.772-1.792l-.37-7.744h1.984c.044,4.279,2.739,7.359,8.277,7.359,3.82,0,6.456-2.236,6.456-5.508,0-3.021-2.132-4.62-4.353-5.316l-3.391-1.007c-5.227-1.51-9.358-3.317-9.358-9.595,0-5.508,5.952-9.387,12.349-9.387,4.99,0,7.862,1.214,9.151,1.792l.37,7.374h-1.984c-.044-4.531-3.42-6.989-7.522-6.989-3.139,0-5.464,2.31-5.464,5.33,0,2.502,1.288,4.116,3.791,4.886l4.027,1.199c4.605,1.392,9.358,3.198,9.358,9.091,0,6.204-5.019,10.335-13.548,10.335h0v-.03Z"/>
        <path class="cls-2" d="M461.119,127.759c-.681.548-1.288,1.051-1.851,1.495-.592.459-1.155.859-1.747,1.185-1.185.651-2.488,1.007-4.412,1.007-4.738,0-7.685-1.984-7.685-6.944v-30.206l7.463-7.448v12.778h6.855v2.754h-6.855v22.003c0,2.828.563,4.264,2.428,4.264.77,0,1.54-.444,2.251-.977.666-.503,1.288-1.096,1.777-1.51l1.792,1.614h0l-.015-.015Z"/>
        <path class="cls-2" d="M516.199,130.705h-12.482c.178-3.183.237-6.707.237-8.632v-12.586c0-4.516-.933-7.403-4.324-7.403-2.828,0-6.204,2.947-6.204,6.841v15.665c0,3.257.651,3.746,3.109,3.939l1.673.178v1.999c-1.17-.059-13.829-.059-16.273,0v-1.999l1.421-.178c2.029-.192,2.606-.696,2.606-3.939v-15.103c0-4.531-1.199-7.403-4.575-7.403s-6.204,3.85-6.204,8.41v14.096c0,3.228.459,3.746,2.606,3.939l1.421.178v1.999c-1.17-.059-13.829-.059-16.273,0v-1.999l1.673-.178c2.458-.192,3.109-.622,3.109-3.939v-20.256c0-1.762-.622-2.236-2.236-2.428,0,0-1.584-.178-2.547-.192v-1.999c4.501-.311,10.35-1.051,11.564-1.407l.385,5.997.178-.296c1.185-2.073,3.435-5.863,8.78-5.863s8.158,2.739,9.151,5.775l.074.222.118-.207c1.185-2.073,3.494-5.789,8.899-5.789,7.033,0,9.328,4.783,9.328,8.706v17.738c0,3.257.666,3.746,3.124,3.939l1.658.178v1.999h0Z"/>
        <path class="cls-1" d="M537.61,111.486c-.311-6.322-2.458-10.838-6.589-10.838-4.56,0-6.841,5.197-7.018,10.735l13.607.104h0ZM524.062,114.048c0,5.375,2.191,14.244,8.854,14.244,2.384,0,4.072-.489,5.523-1.303.726-.4,1.377-.888,2.014-1.436.622-.518,1.214-1.096,1.851-1.703l2.236,1.703c-2.68,2.798-5.493,5.671-12.808,5.671-10.557,0-15.369-8.425-15.369-16.82,0-7.566,6.012-16.258,14.866-16.258,9.758,0,14.14,7.418,14.17,15.888h-21.322l-.015.015Z"/>
        <path class="cls-2" d="M581.911,130.705h-12.482c.178-3.183.252-6.707.252-8.632v-12.586c0-4.516-1.007-7.403-4.383-7.403s-6.396,3.85-6.396,8.41v14.096c0,3.257.666,3.746,3.109,3.939l1.673.178v1.999c-1.185-.059-14.57-.059-17.028,0v-1.999l1.673-.178c2.443-.192,3.109-.622,3.109-3.939v-20.256c0-1.762-.622-2.236-2.236-2.428,0,0-1.584-.178-2.547-.192v-1.999c4.501-.311,10.35-1.051,11.564-1.407l.385,5.997.178-.296c1.199-2.073,3.554-5.863,8.973-5.863,7.033,0,9.387,4.783,9.387,8.706v17.738c0,3.257.666,3.746,3.124,3.939l1.658.178v1.999h-.015Z"/>
        <path class="cls-2" d="M612.324,131.209c-3.42,0-6.663-.622-9.772-1.792l-.37-7.744h1.984c.044,4.279,2.739,7.359,8.277,7.359,3.82,0,6.456-2.236,6.456-5.508,0-3.021-2.132-4.62-4.353-5.316l-3.391-1.007c-5.227-1.51-9.358-3.317-9.358-9.595,0-5.508,5.952-9.387,12.349-9.387,5.005,0,7.862,1.214,9.151,1.792l.37,7.374h-1.984c-.059-4.531-3.42-6.989-7.537-6.989-3.139,0-5.449,2.31-5.449,5.33,0,2.502,1.303,4.116,3.791,4.886l4.027,1.199c4.605,1.392,9.358,3.198,9.358,9.091,0,6.204-5.019,10.335-13.548,10.335h0v-.03Z"/>
        <path class="cls-2" d="M494.567,71.36l-1.481-.178c-2.221-.311-2.961-.548-2.961-3.761V28.554c-.8.311-7.092,1.111-11.712,1.421v2.162c.918,0,2.103.118,2.103.118,1.481.059,2.103.622,2.103,2.28v32.871c0,3.332-.74,3.45-2.961,3.761l-1.362.178v2.162c2.399-.059,15.118-.059,16.287,0v-2.162h0l-.015.015Z"/>
        <path class="cls-2" d="M600.138,127.759c-.681.548-1.273,1.051-1.851,1.495-.592.459-1.155.859-1.747,1.185-1.185.651-2.488,1.007-4.412,1.007-4.738,0-7.699-1.984-7.699-6.944v-30.206l7.463-7.448v12.778h6.855v2.754h-6.855v22.003c0,2.828.563,4.264,2.428,4.264.77,0,1.54-.444,2.236-.977.681-.503,1.288-1.096,1.777-1.51l1.792,1.614h0l.015-.015Z"/>
        <path class="cls-2" d="M276.361,121.259l.933,1.88-.933-1.88h0ZM217.223,80.614l9.328,16.021-19.515,34.203h-25.364V29.842h107.422v100.967h-28.177l10.868-18.819,5.612,11.135h3.998V37.601h-92.023v85.538h3.702l24.15-42.54h0v.015ZM212.5,130.839l35.521-61.714,8.943,16.48-25.778,45.234h-18.686ZM268.854,106.822l-13.548,24.016h-18.538l23.128-40.378,8.943,16.361h.015Z"/>
      </g>
      <rect class="cls-2" x="143.264" width="3.016" height="160"/>
      <g>
        <polygon class="cls-3" points="43.079 125.296 39.892 120.044 37.68 120.044 42.087 127.247 42.087 131.263 44.022 131.263 44.022 127.247 48.412 120.044 46.249 120.044 43.079 125.296"/>
        <path class="cls-3" d="M82.673,123.605c0-2.032-1.594-3.561-3.675-3.561h-4.91v11.219h1.935v-4.179h1.74l2.829,4.179h2.423l-3.008-4.293c1.561-.39,2.667-1.691,2.667-3.366ZM76.023,125.393v-3.528h2.927c.992,0,1.74.748,1.74,1.756s-.748,1.772-1.74,1.772h-2.927Z"/>
        <path class="cls-3" d="M64.888,120.044l-4.423,11.219h2.081l.911-2.39h5.106l.911,2.39h2.13l-4.423-11.219h-2.293ZM64.14,127.084l1.87-4.927,1.87,4.927h-3.74Z"/>
        <polygon class="cls-3" points="52.817 126.531 57.646 126.531 57.646 124.71 52.817 124.71 52.817 121.865 58.182 121.865 58.182 120.044 50.882 120.044 50.882 131.263 58.264 131.263 58.264 129.442 52.817 129.442 52.817 126.531"/>
        <path class="cls-3" d="M55.625,46.84c-5.104,0-5.736,6.946-5.736,13.735,0,8.525,1,14.892,5.736,14.892,5.052,0,5.736-5.789,5.736-14.892,0-6.683-.526-13.735-5.736-13.735Z"/>
        <path class="cls-3" d="M0,29.842v101.422h22.435l26.292-41.559,11.194,17.272,17.161-26.769,30.792,51.009V29.842H0ZM22.431,80.887l-5.368-2.999c3.526-3.947,9.84-11.103,10.945-13.735-1.526,1.105-3.263,1.526-5.104,1.526-6.473,0-11.314-4.683-11.314-11.156,0-7.578,5.999-12.103,13.208-12.103,7.367,0,12.577,4.684,12.577,12.103,0,10.367-8.472,19.05-14.945,26.364ZM55.625,79.887c-11.104,0-12.682-10.209-12.682-19.312,0-8.367,2.737-18.155,12.682-18.155,10.735,0,12.682,9.367,12.682,18.155,0,8.946-2.052,19.312-12.682,19.312Z"/>
        <path class="cls-3" d="M87.313,123.019c0-.878.862-1.431,1.87-1.431,1.122,0,1.967.667,1.967,1.561h1.984c0-1.886-1.691-3.301-3.919-3.301-2.162,0-3.886,1.301-3.886,3.317,0,3.821,6,2.813,6,5.041,0,.894-.911,1.512-2.049,1.512-1.22,0-2.162-.732-2.162-1.707h-1.984c0,1.951,1.772,3.447,4.13,3.447,2.26,0,4.065-1.366,4.065-3.463,0-3.902-6.016-2.748-6.016-4.976Z"/>
        <path class="cls-3" d="M24.484,46.84c-4.104,0-5.946,3.841-5.946,7.42,0,3.789,2.21,6.736,6.209,6.736,1.263,0,3.894-.684,4.736-1.684.737-.842.947-3.789.947-4.789,0-3.894-1.526-7.683-5.946-7.683Z"/>
      </g>
    </g>
  </g>
</svg>